DBRep_DrawableShape

CASCADE Topology V1, (c) Matra-Datavision
Locations 2
1
              1               0               0              60 
              0               1               0             -20 
              0               0               1              60 
2  1 -1 0
Curve2ds 48
1 0 0 1 0 
1 0 0 1 0 
1 200 0 0 -1 
1 0 0 0 1 
1 0 -200 1 0 
1 0 0 1 0 
1 0 0 0 -1 
1 0 0 0 1 
1 0 0 0 1 
1 0 0 1 0 
1 0 0 1 0 
1 0 200 1 0 
1 200 0 0 1 
1 0 0 1 0 
8 30 110
1 140 30 0 1 
8 30 110
1 -30 20 1 0 
8 -110 -30
1 30 140 -1 0 
8 -110 -30
1 -30 -20 -1 -0 
8 30 110
1 60 30 0 1 
8 30 110
1 -30 20 1 0 
8 -110 -30
1 30 60 -1 0 
8 -110 -30
1 -30 -20 -1 -0 
1 200 0 0 1 
1 0 200 1 0 
1 200 0 0 -1 
1 200 0 0 1 
1 0 0 0 1 
1 0 200 1 0 
1 0 -200 1 0 
1 0 200 1 0 
1 0 0 0 -1 
1 200 0 0 1 
1 80 0 0 -1 
1 0 0 0 1 
1 80 0 0 1 
1 0 100 1 0 
1 80 0 0 -1 
1 80 0 0 1 
1 0 -100 1 0 
1 0 80 1 0 
1 0 0 0 -1 
1 80 0 0 1 
1 0 0 0 -1 
1 0 0 0 1 
1 0 0 0 1 
1 0 100 1 0 
1 0 -100 1 0 
1 0 0 1 0 
Curves 24
1 0 0 0 0 0 1 
1 0 0 200 -0 1 0 
1 0 200 0 0 0 1 
1 0 0 0 -0 1 0 
1 0 0 0 1 0 -0 
1 200 0 0 0 0 1 
1 0 0 200 1 0 -0 
1 30 0 140 1 0 -0 
1 140 0 30 -0 0 -1 
1 30 0 60 1 0 -0 
1 60 0 30 -0 0 -1 
1 0 200 200 1 0 -0 
1 200 0 200 0 1 0 
1 0 200 0 1 0 -0 
1 200 200 0 0 0 1 
1 200 0 0 -0 1 0 
1 0 0 80 -0 1 0 
1 0 100 80 1 0 -0 
1 80 0 80 0 1 0 
1 80 100 0 0 0 1 
1 80 0 0 -0 1 0 
1 0 0 0 -0 1 0 
1 0 100 0 1 0 -0 
1 0 100 0 0 0 1 
Polygon3D 0
PolygonOnTriangulations 48
2 1 2 
p 0.8000000008 1 0 200 
2 1 4 
p 0.8000000008 1 0 200 
2 2 3 
p 0.8000000008 1 0 200 
2 1 2 
p 0.8000000008 1 0 200 
2 4 3 
p 0.8000000008 1 0 200 
2 1 4 
p 0.8000000008 1 0 200 
2 1 4 
p 0.8000000008 1 0 200 
2 1 2 
p 0.8000000008 1 0 200 
2 1 2 
p 0.8000000008 1 0 200 
2 1 4 
p 0.8000000008 1 0 200 
2 2 3 
p 0.8000000008 1 0 200 
2 1 2 
p 0.8000000008 1 0 200 
2 4 3 
p 0.8000000008 1 0 200 
2 1 4 
p 0.8000000008 1 0 200 
2 5 6 
p 0.8000000008 1 30 110 
2 1 4 
p 0.8000000008 1 30 110 
2 6 7 
p 0.8000000008 1 -110 -30 
2 1 4 
p 0.8000000008 1 -110 -30 
2 8 7 
p 0.8000000008 1 30 110 
2 1 4 
p 0.8000000008 1 30 110 
2 5 8 
p 0.8000000008 1 -110 -30 
2 1 4 
p 0.8000000008 1 -110 -30 
2 2 3 
p 0.8000000008 1 0 200 
2 4 3 
p 0.8000000008 1 0 200 
2 4 3 
p 0.8000000008 1 0 200 
2 2 3 
p 0.8000000008 1 0 200 
2 1 2 
p 0.8000000008 1 0 200 
2 2 3 
p 0.8000000008 1 0 200 
2 2 3 
p 0.8000000008 1 0 200 
2 4 3 
p 0.8000000008 1 0 200 
2 4 3 
p 0.8000000008 1 0 200 
2 1 4 
p 0.8000000008 1 0 200 
2 1 2 
p 0.8000000008 1 20 100 
2 1 2 
p 0.8000000008 1 20 100 
2 2 3 
p 0.8000000008 1 0 80 
2 4 3 
p 0.8000000008 1 0 80 
2 4 3 
p 0.8000000008 1 20 100 
2 1 2 
p 0.8000000008 1 20 100 
2 3 2 
p 0.8000000008 1 0 80 
2 2 3 
p 0.8000000008 1 0 80 
2 4 3 
p 0.8000000008 1 20 100 
2 4 3 
p 0.8000000008 1 20 100 
2 1 2 
p 0.8000000008 1 20 100 
2 4 3 
p 0.8000000008 1 20 100 
2 2 3 
p 0.8000000008 1 0 80 
2 1 2 
p 0.8000000008 1 0 80 
2 3 2 
p 0.8000000008 1 0 80 
2 1 4 
p 0.8000000008 1 0 80 
Surfaces 11
1 0 0 0 1 0 -0 0 0 1 0 -1 0 
1 0 0 0 -0 1 0 0 0 1 1 0 -0 
1 0 0 200 0 0 1 1 0 -0 -0 1 0 
1 0 200 0 -0 1 0 0 0 1 1 0 -0 
1 0 0 0 0 0 1 1 0 -0 -0 1 0 
1 200 0 0 1 0 -0 0 0 1 0 -1 0 
1 0 0 80 0 0 1 1 0 -0 -0 1 0 
1 80 0 0 1 0 -0 0 0 1 0 -1 0 
1 0 0 0 0 0 1 1 0 -0 -0 1 0 
1 0 0 0 1 0 -0 0 0 1 0 -1 0 
1 0 100 0 -0 1 0 0 0 1 1 0 -0 
Triangulations 11
4 2 1 0
0 0 0 0 0 200 0 200 200 0 200 0 0 0 200 0 200 -200 0 -200 2 4 3 2 1 4 
8 8 1 0
0 0 0 200 0 0 200 0 200 0 0 200 60 0 140 140 0 140 140 0 60 60 0 60 0 0 0 200 200 200 200 0 140 60 140 140 60 140 60 60 4 5 8 4 8 1 2 8 7 2 1 8 3 6 5 3 7 6 3 2 7 3 5 4 
4 2 1 0
0 0 200 0 200 200 200 200 200 200 0 200 0 0 0 200 200 200 200 0 3 2 1 3 1 4 
4 2 1 0
0 200 0 200 200 0 200 200 200 0 200 200 0 0 0 200 200 200 200 0 3 2 1 3 1 4 
4 2 1 0
0 0 0 0 200 0 200 200 0 200 0 0 0 0 0 200 200 200 200 0 3 2 1 3 1 4 
4 2 1 0
200 0 0 200 0 200 200 200 200 200 200 0 0 0 200 0 200 -200 0 -200 2 4 3 2 1 4 
4 2 1 0
60 0 140 60 80 140 140 80 140 140 0 140 0 20 0 100 80 100 80 20 3 2 1 3 1 4 
4 2 1 0
140 0 140 140 80 140 140 80 60 140 0 60 80 -20 80 -100 0 -100 0 -20 1 3 2 1 4 3 
4 2 1 0
60 0 60 60 80 60 140 80 60 140 0 60 0 20 0 100 80 100 80 20 3 2 1 3 1 4 
4 2 1 0
60 0 140 60 80 140 60 80 60 60 0 60 80 -20 80 -100 0 -100 0 -20 1 3 2 1 4 3 
4 2 1 0
0 100 0 80 100 0 80 100 80 0 100 80 0 0 0 80 80 80 80 0 3 2 1 3 1 4 

TShapes 65
Ve
1.0001000025e-07
0 0 200
0 0

0101101
*
Ve
1.0001000025e-07
0 0 0
0 0

0101101
*
Ed
 1.0001000025e-07 1 1 0
1  1 0 0 200
2  1 1 0 0 200
2  2 2 0 0 200
6  1 1 0
6  2 2 0
0

0101000
-65 0 +64 0 *
Ve
1.0001000025e-07
0 200 200
0 0

0101101
*
Ed
 1.0001000025e-07 1 1 0
1  2 0 0 200
2  3 1 0 0 200
2  4 3 0 0 200
6  3 1 0
6  4 3 0
0

0101000
-62 0 +65 0 *
Ve
1.0001000025e-07
0 200 0
0 0

0101101
*
Ed
 1.0001000025e-07 1 1 0
1  3 0 0 200
2  5 1 0 0 200
2  6 4 0 0 200
6  5 1 0
6  6 4 0
0

0101000
-62 0 +60 0 *
Ed
 1.0001000025e-07 1 1 0
1  4 0 0 200
2  7 1 0 0 200
2  8 5 0 0 200
6  7 1 0
6  8 5 0
0

0101000
-60 0 +64 0 *
Wi

0101000
-63 0 -61 0 +59 0 +58 0 *
Fa
0  1e-07 1 0
2  1
0101000
+57 0 *
Ve
1.0001000025e-07
200 0 0
0 0

0101101
*
Ed
 1.0001000025e-07 1 1 0
1  5 0 0 200
2  9 2 0 0 200
2  10 5 0 0 200
6  9 2 0
6  10 5 0
0

0101000
-55 0 +64 0 *
Ve
1.0001000025e-07
200 0 200
0 0

0101101
*
Ed
 1.0001000025e-07 1 1 0
1  6 0 0 200
2  11 6 0 0 200
2  12 2 0 0 200
6  11 2 0
6  12 6 0
0

0101000
-53 0 +55 0 *
Ed
 1.0001000025e-07 1 1 0
1  7 0 0 200
2  13 2 0 0 200
2  14 3 0 0 200
6  13 2 0
6  14 3 0
0

0101000
-53 0 +65 0 *
Wi

0101000
-54 0 -52 0 +63 0 +51 0 *
Ve
1.0001000025e-07
60 0 140
0 0

0101101
*
Ve
1.0001000025e-07
140 0 140
0 0

0101101
*
Ed
 1.0001000025e-07 1 1 0
1  8 0 30 110
2  15 2 0 30 110
2  16 7 1 30 110
6  15 2 0
6  16 7 0
0

0101000
+49 0 -48 0 *
Ve
1.0001000025e-07
140 0 60
0 0

0101101
*
Ed
 1.0001000025e-07 1 1 0
1  9 0 -110 -30
2  17 2 0 -110 -30
2  18 8 1 -110 -30
6  17 2 0
6  18 8 0
0

0101000
+48 0 -46 0 *
Ve
1.0001000025e-07
60 0 60
0 0

0101101
*
Ed
 1.0001000025e-07 1 1 0
1  10 0 30 110
2  19 2 0 30 110
2  20 9 1 30 110
6  19 2 0
6  20 9 0
0

0101000
+44 0 -46 0 *
Ed
 1.0001000025e-07 1 1 0
1  11 0 -110 -30
2  21 2 0 -110 -30
2  22 10 1 -110 -30
6  21 2 0
6  22 10 0
0

0101000
+49 0 -44 0 *
Wi

0101000
-47 0 -45 0 +43 0 +42 0 *
Fa
0  1e-07 2 0
2  2
0101000
+50 0 +41 0 *
Ve
1.0001000025e-07
200 200 200
0 0

0101101
*
Ed
 1.0001000025e-07 1 1 0
1  12 0 0 200
2  23 4 0 0 200
2  24 3 0 0 200
6  23 3 0
6  24 4 0
0

0101000
-39 0 +62 0 *
Ed
 1.0001000025e-07 1 1 0
1  13 0 0 200
2  25 6 0 0 200
2  26 3 0 0 200
6  25 3 0
6  26 6 0
0

0101000
-39 0 +53 0 *
Wi

0101000
-61 0 -38 0 +37 0 +51 0 *
Fa
0  1e-07 3 0
2  3
0101000
+36 0 *
Ve
1.0001000025e-07
200 200 0
0 0

0101101
*
Ed
 1.0001000025e-07 1 1 0
1  14 0 0 200
2  27 4 0 0 200
2  28 5 0 0 200
6  27 4 0
6  28 5 0
0

0101000
-34 0 +60 0 *
Ed
 1.0001000025e-07 1 1 0
1  15 0 0 200
2  29 6 0 0 200
2  30 4 0 0 200
6  29 4 0
6  30 6 0
0

0101000
-39 0 +34 0 *
Wi

0101000
-33 0 -32 0 +38 0 +59 0 *
Fa
0  1e-07 4 0
2  4
0101000
+31 0 *
Ed
 1.0001000025e-07 1 1 0
1  16 0 0 200
2  31 6 0 0 200
2  32 5 0 0 200
6  31 5 0
6  32 6 0
0

0101000
-34 0 +55 0 *
Wi

0101000
-58 0 -33 0 +29 0 +54 0 *
Fa
0  1e-07 5 0
2  5
0101000
+28 0 *
Wi

0101000
-52 0 -37 0 +32 0 +29 0 *
Fa
0  1e-07 6 0
2  6
0101000
+26 0 *
Ve
1.0001000025e-07
0 100 80
0 0

0101101
*
Ed
 1.0001000025e-07 1 1 0
1  17 0 20 100
2  33 10 0 20 100
2  34 7 0 20 100
6  33 7 2
6  34 10 2
0

0101000
+49 2 -24 0 *
Ve
1.0001000025e-07
80 100 80
0 0

0101101
*
Ed
 1.0001000025e-07 1 1 0
1  18 0 0 80
2  35 11 0 0 80
2  36 7 0 0 80
6  35 7 2
6  36 11 0
0

0101000
-22 0 +24 0 *
Ed
 1.0001000025e-07 1 1 0
1  19 0 20 100
2  37 8 0 20 100
2  38 7 0 20 100
6  37 7 2
6  38 8 2
0

0101000
+48 2 -22 0 *
Wi

0101000
-23 1 -21 1 +20 1 +47 0 *
Fa
0  1e-07 7 1
2  7
0101000
+19 0 *
Ve
1.0001000025e-07
80 100 0
0 0

0101101
*
Ed
 1.0001000025e-07 1 1 0
1  20 0 0 80
2  39 8 0 0 80
2  40 11 0 0 80
6  39 8 2
6  40 11 0
0

0101000
-22 0 +17 0 *
Ed
 1.0001000025e-07 1 1 0
1  21 0 20 100
2  41 8 0 20 100
2  42 9 0 20 100
6  41 8 2
6  42 9 2
0

0101000
+46 2 -17 0 *
Wi

0101000
-20 1 +16 1 +15 1 +45 0 *
Fa
0  1e-07 8 1
2  8
0101000
+14 0 *
Ve
1.0001000025e-07
0 100 0
0 0

0101101
*
Ed
 1.0001000025e-07 1 1 0
1  22 0 20 100
2  43 10 0 20 100
2  44 9 0 20 100
6  43 9 2
6  44 10 2
0

0101000
+44 2 -12 0 *
Ed
 1.0001000025e-07 1 1 0
1  23 0 0 80
2  45 11 0 0 80
2  46 9 0 0 80
6  45 9 2
6  46 11 0
0

0101000
-17 0 +12 0 *
Wi

0101000
-11 1 -10 1 +15 1 +43 0 *
Fa
0  1e-07 9 1
2  9
0101000
+9 0 *
Ed
 1.0001000025e-07 1 1 0
1  24 0 0 80
2  47 10 0 0 80
2  48 11 0 0 80
6  47 10 2
6  48 11 0
0

0101000
-24 0 +12 0 *
Wi

0101000
-23 1 +7 1 +11 1 +42 0 *
Fa
0  1e-07 10 1
2  10
0101000
+6 0 *
Wi

0101000
-10 0 -16 0 +21 0 +7 0 *
Fa
0  1e-07 11 0
2  11
0101000
+4 0 *
Sh

0101100
-56 0 -40 0 +35 0 +30 0 -27 0 +25 0 -18 0 -13 0 +8 0 +5 0 
-3 1 *
So

0100000
+2 0 *

+1 0 